<svg width="1024" height="1024" viewBox="0 0 1024 1024" fill="none" xmlns="http://www.w3.org/2000/svg">
<rect width="1024" height="1024" rx="240" fill="#70BCE0"/>
<path d="M772.502 685.435C754.424 668.143 736.323 690.24 722.741 703.703L717.127 709.174C715.533 710.697 713.964 712.219 712.251 713.622C708.968 716.548 705.377 719.093 701.713 721.662C694.34 726.538 686.371 730.677 678.094 733.77C661.348 739.978 643.318 742.237 625.549 739.859C607.757 737.67 590.536 730.796 575.859 720.187C569.151 715.311 560.446 707.271 552.358 700.326L527.882 678.775L502.359 656.13C493.654 648.637 486.161 641.145 474.957 632.629C453.645 616.93 428.241 606.821 401.959 603.633C375.651 600.399 348.677 604.109 324.131 614.29C311.953 619.475 300.321 626.04 289.855 634.199C284.551 638.147 279.674 642.595 274.941 647.234L262.834 659.341C252.296 669.926 232.316 681.391 247.492 697.946C263.88 715.786 275.56 694.592 285.788 684.721L297.777 673.161C301.606 669.498 305.198 666.215 309.218 663.171C317.139 657.01 325.773 651.848 334.907 647.876C353.175 639.789 373.512 636.554 393.422 638.123C413.331 639.765 432.813 646.472 449.51 657.557C453.649 660.411 457.669 663.337 461.451 666.62L473.819 677.585L498.723 699.754L548.651 744.758C567.347 760.647 590.063 772.041 614.3 777.393C638.539 782.745 664.347 782.269 688.772 775.561C701.022 772.279 712.94 767.522 724.214 761.313C729.875 758.269 735.346 754.796 740.65 751.014C743.267 749.064 745.955 747.184 748.452 745.044L755.445 739.263C771.453 725.991 794.407 706.391 772.381 685.316L772.502 685.435Z" fill="#F4F4F4"/>
<path d="M532.406 542.288C546.726 556.964 561.758 570.903 576.792 584.842L593.775 600.541C595.773 602.491 598.699 605.108 601.458 607.177C607.072 611.506 614.065 615.573 621.558 617.952C628.551 620.259 635.996 621.543 643.489 621.662C659.188 621.9 675.149 616.358 687.209 606.32C688.802 605.107 690.134 603.751 691.585 602.419L694.701 599.375L711.756 582.32L757.117 536.769C762.112 531.774 773.744 528.61 758.211 512.411C741.465 494.928 738.492 507.488 733.544 512.055C718.083 526.231 703.217 540.979 688.421 555.893L668.869 575.612C669.107 539.504 665.896 503.441 665.896 467.338C665.896 428.613 666.015 389.821 665.777 351.093C665.777 344.694 671.747 335.251 649.341 334.823C625.102 334.394 631.929 344.266 631.62 350.355C628.147 425.497 636.853 500.707 620.773 575.733C619.37 574.282 617.966 572.617 616.206 570.738L605.788 558.916C592.087 543.027 579.052 526.4 567.254 508.608C561.712 500.33 553.363 488.628 532.051 510.44C514.568 528.279 526.033 535.772 532.36 542.219L532.406 542.288Z" fill="#F4F4F4"/>
<path d="M409.025 292.863L419.443 304.685C433.144 320.574 446.179 337.201 457.977 354.993C463.519 363.271 471.868 374.973 493.181 353.162C510.664 335.322 499.198 327.829 492.871 321.383C478.552 306.706 463.519 292.768 448.486 278.829L437.211 268.362L431.55 263.129C429.551 261.179 426.626 258.562 423.867 256.493C418.253 252.164 411.26 248.097 403.767 245.718C396.774 243.411 389.329 242.126 381.836 242.007C366.137 241.769 350.176 247.312 338.116 257.349C336.523 258.563 335.19 259.918 333.74 261.25L330.624 264.295L313.569 281.35L268.208 326.901C263.213 331.896 251.581 335.06 267.114 351.258C283.859 368.741 286.833 356.182 291.78 351.615C307.242 337.439 322.108 322.691 336.903 307.777L356.456 288.058C356.218 324.166 359.429 360.229 359.429 396.332C359.976 396.332 359.667 396.332 359.429 396.332C359.429 435.057 359.31 473.849 359.548 512.577C359.548 518.976 353.577 528.419 375.984 528.847C400.223 529.275 393.396 519.404 393.705 513.315C397.178 438.172 388.472 362.963 404.552 287.937C405.955 289.388 407.358 291.053 409.119 292.932L409.025 292.863Z" fill="#F4F4F4"/>
</svg>
